<svg xmlns="http://www.w3.org/2000/svg" viewBox="0 0 1200 750">
    <defs><linearGradient id="bg" x1="0" y1="0" x2="1" y2="1"><stop stop-color="#122a43"/><stop offset="1" stop-color="#07111e"/></linearGradient><filter id="shadow"><feDropShadow dx="0" dy="20" stdDeviation="18" flood-opacity=".25"/></filter></defs>
    <rect width="1200" height="750" fill="url(#bg)"/><circle cx="1060" cy="80" r="330" fill="#7ba2ff" opacity=".08"/><circle cx="110" cy="700" r="260" fill="#7ba2ff" opacity=".05"/>
    <text x="70" y="88" font-family="Arial,sans-serif" font-size="22" font-weight="700" letter-spacing="3" fill="#7ba2ff">FINANCE RECONCILIATION</text>
    
  <g filter="url(#shadow)">
    <rect x="90" y="160" width="1020" height="500" rx="32" fill="#0c1a2b" stroke="#ffffff" stroke-opacity=".12"/>
    <rect x="135" y="210" width="930" height="70" rx="18" fill="#102941"/><rect x="165" y="232" width="240" height="24" rx="12" fill="#ffffff" opacity=".12"/><rect x="880" y="228" width="145" height="32" rx="16" fill="#7ba2ff" opacity=".18"/>
    <g font-family="Arial" font-size="17"><rect x="135" y="310" width="580" height="300" rx="22" fill="#112941"/><text x="170" y="355" fill="#8fa1b9">TRANSACTION MATCHING</text>
      <g fill="#dce5f2"><text x="170" y="415">Bank deposit #1048</text><text x="170" y="475">Invoice batch #332</text><text x="170" y="535">Card clearing #208</text></g>
      <g fill="#59f2c3" text-anchor="end"><text x="675" y="415">MATCHED</text><text x="675" y="475">MATCHED</text></g><text x="675" y="535" text-anchor="end" fill="#f6c56d">REVIEW</text>
    </g>
    <rect x="745" y="310" width="320" height="300" rx="22" fill="#112941"/><circle cx="905" cy="450" r="90" fill="none" stroke="#ffffff" stroke-opacity=".08" stroke-width="28"/><path d="M905 360 A90 90 0 1 1 824 489" fill="none" stroke="#7ba2ff" stroke-width="28" stroke-linecap="round"/><text x="905" y="455" text-anchor="middle" font-family="Arial" font-size="38" font-weight="800" fill="#f4f8ff">91%</text><text x="905" y="490" text-anchor="middle" font-family="Arial" font-size="14" fill="#8fa1b9">AUTO-MATCHED</text>
  </g>
    </svg>